<svg xmlns="http://www.w3.org/2000/svg" xmlns:xlink="http://www.w3.org/1999/xlink" width="96" height="96" viewBox="0 0 96 96">
    <defs>
        <path id="a" d="M9.952 73.86L22.382 49H2.011a45.77 45.77 0 0 0 7.94 24.86zm1.318 1.837C19.48 86.567 32.403 93.678 47 93.989V49H24.618L11.27 75.697zM45.857 2.049C21.777 3.153 2.527 22.771 2.011 47h21.371L45.857 2.049zM47 4.236L25.618 47H47V4.236zm14.387-.258C68.078 8.353 72.5 15.911 72.5 24.501 72.5 34.58 66.41 43.24 57.71 47h36.28C93.555 26.69 79.957 9.618 61.386 3.978zM49 2.022v44.956c11.94-.527 21.46-10.448 21.46-22.518S60.94 2.545 49 2.022zM.01 49H0v-2h.01C.536 21.285 21.285.536 47 .01V0h2v.01C74.715.536 95.464 21.285 95.99 47H96v2h-.01C95.464 74.715 74.715 95.464 49 95.99V96h-2v-.01C21.285 95.464.536 74.715.01 49zm93.98 0H49v44.99C73.61 93.463 93.464 73.61 93.99 49z"/>
    </defs>
    <g fill="none" fill-rule="evenodd">
        <mask id="b" fill="#fff">
            <use xlink:href="#a"/>
        </mask>
        <use fill="#FFF" xlink:href="#a"/>
        <g fill="#247BA0" mask="url(#b)">
            <path d="M0 0h96v96H0z"/>
        </g>
    </g>
</svg>
