<?xml version="1.0" standalone="no"?>
<!DOCTYPE svg PUBLIC "-//W3C//DTD SVG 20010904//EN"
 "http://www.w3.org/TR/2001/REC-SVG-20010904/DTD/svg10.dtd">
<svg version="1.0" xmlns="http://www.w3.org/2000/svg"
 width="576.000000pt" height="576.000000pt" viewBox="0 0 576.000000 576.000000"
 preserveAspectRatio="xMidYMid meet">
<metadata>
Created by potrace 1.11, written by Peter Selinger 2001-2013
</metadata>
<g transform="translate(0.000000,576.000000) scale(0.100000,-0.100000)"
fill="#000000" stroke="none">
<path d="M2678 5755 c-2 -1 -34 -6 -73 -9 -449 -42 -889 -193 -1274 -438 -349
-223 -648 -522 -879 -881 -219 -339 -375 -768 -427 -1167 -3 -25 -8 -63 -11
-85 -9 -62 -12 -500 -3 -553 4 -26 10 -76 14 -112 4 -36 16 -112 27 -170 149
-789 623 -1477 1313 -1909 222 -140 624 -310 815 -345 14 -2 54 -11 90 -20 36
-8 81 -17 100 -20 19 -3 46 -8 60 -10 127 -23 239 -31 450 -31 178 0 253 4
382 21 169 21 379 71 560 133 837 290 1497 953 1785 1794 57 168 112 404 129
557 3 30 9 84 14 120 8 67 5 482 -4 535 -3 17 -8 57 -11 90 -4 33 -16 107 -27
165 -168 888 -749 1648 -1563 2045 -185 91 -446 187 -565 209 -14 2 -54 11
-90 20 -36 8 -81 17 -100 20 -19 3 -44 8 -56 10 -20 4 -83 13 -169 23 -46 5
-482 13 -487 8z m61 -129 c2 -4 -297 -610 -665 -1346 l-669 -1340 -643 0 -643
0 6 88 c8 136 14 188 36 317 123 719 523 1356 1119 1782 391 280 872 460 1335
499 44 3 81 7 82 9 7 5 38 -2 42 -9z m336 -1 c258 -33 527 -165 730 -357 189
-178 317 -397 379 -645 34 -134 41 -195 40 -353 -4 -515 -310 -985 -784 -1207
-59 -28 -206 -79 -255 -89 -11 -2 -31 -6 -45 -9 -31 -7 -90 -14 -152 -20 l-48
-4 0 1349 0 1349 43 -3 c23 -3 65 -7 92 -11z m860 -194 c44 -18 141 -64 215
-102 508 -263 916 -672 1181 -1183 72 -139 111 -231 165 -387 33 -99 89 -312
99 -384 3 -22 10 -65 15 -95 13 -80 21 -164 25 -257 l4 -83 -1086 0 -1086 0
75 38 c78 40 202 118 228 143 8 8 31 26 50 40 72 54 198 191 270 295 47 69
157 276 165 311 2 10 13 45 25 78 68 194 88 504 46 710 -44 214 -111 379 -227
555 -68 103 -243 288 -341 360 -32 23 -58 44 -58 45 0 4 143 -48 235 -84z
m-1115 -1211 l0 -1280 -641 0 c-376 0 -639 4 -637 9 6 18 1273 2551 1276 2551
1 0 2 -576 2 -1280z m-1482 -1408 c-1 -5 -169 -341 -372 -747 l-369 -737 -54
83 c-70 109 -202 376 -249 504 -94 255 -154 544 -169 803 l-5 102 611 0 c336
0 609 -4 607 -8z m1482 -1342 l0 -1350 -92 5 c-107 6 -171 12 -248 25 -30 5
-73 12 -95 16 -317 47 -730 215 -1035 420 -131 88 -147 100 -269 203 -111 94
-272 261 -356 368 l-48 63 399 800 399 800 673 0 672 0 0 -1350z m2815 1266
c-4 -87 -13 -181 -21 -227 -2 -15 -6 -45 -9 -68 -19 -154 -97 -429 -173 -611
-98 -237 -278 -539 -417 -699 -92 -107 -117 -133 -190 -206 -136 -135 -269
-244 -432 -353 -184 -124 -436 -244 -678 -322 -104 -33 -318 -85 -395 -95 -25
-3 -61 -7 -80 -10 -94 -12 -122 -15 -207 -20 l-93 -5 0 1350 0 1350 1350 0
1350 0 -5 -84z"/>
</g>
</svg>
